<?xml version="1.0" encoding="UTF-8"?>
<svg xmlns="http://www.w3.org/2000/svg" viewBox="0 0 823.82 579.88">
  <defs>
    <style>
      .cls-1 {
        fill: none;
      }

      .cls-2 {
        isolation: isolate;
      }

      .cls-3 {
        fill: #e2b291;
        mix-blend-mode: multiply;
        opacity: .5;
      }

      .cls-4 {
        fill: #fff;
      }

      .cls-5 {
        fill: #e2a379;
      }
    </style>
  </defs>
  <g class="cls-2">
    <g id="Layer_2" data-name="Layer 2">
      <g id="Layer_1-2" data-name="Layer 1">
        <g>
          <polygon class="cls-4" points="823.82 442.03 719.08 442.03 719.08 433.03 814.82 433.03 814.82 189.67 9 189.67 9 433.03 90.5 433.03 90.5 442.03 0 442.03 0 180.67 823.82 180.67 823.82 442.03"/>
          <g>
            <path class="cls-4" d="M492.44,259.88c0,15.28-2.36,30-6.76,43.83-2.59-5.84-5.56-11.47-8.87-16.88-5.8-9.47-12.65-18.21-20.39-26.08-14.61-14.86-32.42-26.58-52.3-34.04-.95-.36-1.89-.71-2.85-1.03h-.01c-8.98-3.17-18.35-5.48-28.04-6.81-.07-.01-.13-.03-.19-.04-2.82-.43-12.25-2.2-18.18-3.32,7.81,1.29,15.85,1.97,24.02,1.97,18.03,0,35.28-3.29,51.2-9.31,11.09-4.18,21.53-9.69,31.12-16.33-4.77-10.58-8.3-21.85-10.4-33.61,7.74,7.87,14.6,16.61,20.39,26.08.67,1.08,1.31,2.17,1.93,3.27.21.35.4.7.6,1.04.46.81.9,1.6,1.33,2.42.15.26.31.53.44.81.5.95,1,1.9,1.47,2.86.13.22.24.44.35.67.58,1.17,1.14,2.34,1.7,3.52.32.7.64,1.38.95,2.09.31.67.6,1.36.89,2.04.76,1.78,1.5,3.59,2.18,5.41.36.9.7,1.82,1.01,2.74.32.88.63,1.77.92,2.66.17.5.33,1,.49,1.5.21.61.4,1.24.6,1.86.72,2.36,1.39,4.75,2,7.17.24.95.47,1.9.7,2.86.51,2.28.99,4.57,1.4,6.89h.01c1.08,6.06,1.79,12.26,2.1,18.54.13,2.4.18,4.81.18,7.23Z"/>
            <path class="cls-4" d="M707.52,221.82c-9.84,12.57-21.73,23.45-35.14,32.17h-.01c-22.71,14.79-49.82,23.38-78.94,23.38-8.66,0-17.15-.76-25.4-2.22.17-2.71.24-5.44.24-8.17,0-1.42-.01-2.84-.07-4.24-.01-.74-.04-1.47-.08-2.21,0-.39-.03-.78-.06-1.17-.03-.71-.07-1.42-.13-2.13-.08-1.39-.19-2.78-.32-4.16-.1-1.03-.21-2.04-.33-3.06-.1-.92-.22-1.83-.35-2.75.01-.03,0-.04,0-.06-.13-.92-.26-1.82-.4-2.72-.14-.92-.29-1.83-.46-2.75-.15-.89-.32-1.78-.49-2.67,0-.01,0-.03-.01-.04-.71-3.63-1.56-7.2-2.52-10.72-.25-.88-.5-1.75-.75-2.61-.26-.88-.53-1.75-.81-2.61-.28-.86-.56-1.72-.85-2.59-.29-.85-.58-1.71-.89-2.54v-.03c-.32-.85-.63-1.7-.95-2.53-.32-.85-.65-1.68-.99-2.52-.9-2.25-1.86-4.46-2.88-6.66-.32-.7-.64-1.38-.97-2.06-.36-.74-.72-1.49-1.1-2.22-.61-1.24-1.25-2.46-1.9-3.67-2.56-4.71-5.35-9.29-8.4-13.66,1.63,1.85,3.34,3.67,5.07,5.44h.01c20.64,20.99,47.62,35.7,77.86,41.04,8.24,1.46,16.74,2.22,25.4,2.22,20.09,0,39.21-4.09,56.6-11.47Z"/>
            <path class="cls-1" d="M542.57,184.59c-3.93-4.39-7.58-9.04-10.94-13.9,3.93,4.39,7.59,9.04,10.94,13.9Z"/>
            <path class="cls-1" d="M531.63,170.69c3.93,4.39,7.59,9.04,10.94,13.9-3.93-4.39-7.58-9.04-10.94-13.9Z"/>
            <path class="cls-1" d="M542.57,184.59c-3.93-4.39-7.58-9.04-10.94-13.9,3.93,4.39,7.59,9.04,10.94,13.9Z"/>
            <path class="cls-5" d="M568.26,266.97c0,2.74-.07,5.46-.24,8.17-30.23-5.34-57.22-20.05-77.86-41.02h-.01c-.42-2.34-.89-4.63-1.4-6.91-.22-.96-.46-1.92-.7-2.86-.61-2.42-1.28-4.81-2-7.17-.19-.63-.39-1.25-.6-1.86-.15-.5-.32-1-.49-1.5-.29-.89-.6-1.78-.92-2.66-.33-.92-.67-1.83-1.01-2.74-.68-1.82-1.42-3.63-2.18-5.41-.29-.68-.58-1.38-.89-2.04-.31-.71-.63-1.39-.95-2.09-.56-1.18-1.11-2.35-1.7-3.52-.11-.22-.22-.44-.35-.67-.47-.96-.97-1.92-1.47-2.86-.14-.28-.29-.54-.44-.81-.43-.82-.88-1.61-1.33-2.42-.19-.35-.39-.7-.6-1.04-.63-1.1-1.26-2.18-1.93-3.27-5.8-9.47-12.65-18.21-20.39-26.08,2.1,11.76,5.63,23.03,10.4,33.61-9.59,6.64-20.03,12.15-31.12,16.33-15.92,6.02-33.17,9.31-51.2,9.31-8.17,0-16.21-.68-24.02-1.97-.22-.03-.43-.07-.64-.11-.39-.07-.79-.14-1.18-.22-.38-.07-.72-.14-1.04-.19-.29-.04-.58-.1-.86-.17-.22-.04-.44-.08-.67-.13-.1-.01-.18-.03-.28-.06-.24-.04-.36-.07-.36-.07-3.31-.67-6.58-1.46-9.8-2.36-1-.28-1.99-.57-2.97-.86-.4,2.42-.88,4.82-1.4,7.2-.08.36-.17.71-.25,1.07-6.14,26.77-19.71,50.7-38.42,69.52,2.32-10.27,3.54-20.96,3.54-31.94,0-9.83-.97-19.43-2.85-28.71-.17-.83-.35-1.67-.53-2.49-.06-.26-.11-.54-.18-.81-1.42-6.32-3.25-12.47-5.48-18.45-5.2-14.04-12.52-27.04-21.57-38.64-.01-.01-.03-.04-.06-.06-1.68-2.17-3.45-4.3-5.28-6.37-.01-.01-.03-.03-.03-.04-3.35-4.31-6.48-8.81-9.34-13.48-.25-.4-.49-.81-.74-1.22-6.64-11.08-11.84-23.13-15.33-35.88-.6-2.17-1.14-4.36-1.64-6.58-2.56.38-5.16.56-7.81.56-1.24,0-2.46-.04-3.67-.13-20.45-1.33-37.87-13.78-46.28-31.36-3.14-6.55-5.03-13.8-5.35-21.46,5.3,2.61,11.08,4.41,17.17,5.21,2.38.31,4.81.47,7.28.47,9.59,0,18.61-2.43,26.47-6.74,1.58-.86,3.13-1.79,4.6-2.81.6-.4,1.18-.81,1.75-1.24,0,0,.01,0,.01-.01,2.68-1.32,9.16-3.25,9.44-3.43t-.01.03c7.53-.32,15.54,5.5,15.54,5.5l-9.97-9.98h-.01c6.26-6.2,10.13-14.79,10.13-24.29,0-4.66-.93-9.09-2.63-13.12,0-.56-.01-1.11-.04-1.67,18.31,9.01,30.92,27.87,30.92,49.67,0,7.41-1.45,14.47-4.1,20.92,0,.11,19.57,17.11,27.5,27.26,10.38,7.15,21.74,12.96,33.83,17.2h.01c15.05,5.32,31.24,8.2,48.11,8.2,1.77,0,3.52-.03,5.25-.1h.01c.96.32,19.21-1.1,27.68-1.1s17.17.76,25.41,2.22c20.02,3.54,38.62,11.19,54.89,22.05,10.36,6.89,19.78,15.1,28,24.37,3.36,4.87,7.01,9.51,10.94,13.9,3.04,4.38,5.84,8.95,8.4,13.66.65,1.22,1.29,2.45,1.9,3.67.38.74.74,1.49,1.1,2.22.33.68.65,1.38.97,2.06,1.01,2.2,1.97,4.41,2.88,6.66.33.83.67,1.67.99,2.52.32.83.63,1.68.95,2.53v.03c.31.83.6,1.7.89,2.54.29.86.57,1.72.85,2.59.28.86.54,1.74.81,2.61.25.86.5,1.74.75,2.61.97,3.52,1.82,7.09,2.52,10.72.01.01.01.03.01.04.17.89.33,1.78.49,2.67.17.92.32,1.83.46,2.75.14.9.28,1.81.4,2.72,0,.01.01.03,0,.06.13.92.25,1.83.35,2.75.13,1.01.24,2.03.33,3.06.13,1.38.24,2.77.32,4.16.06.71.1,1.42.13,2.13.03.39.06.78.06,1.17.04.74.07,1.47.08,2.21.06,1.4.07,2.82.07,4.24Z"/>
            <path class="cls-3" d="M485.69,303.71c-2.59-5.84-5.56-11.47-8.87-16.88-5.8-9.47-12.65-18.21-20.39-26.08-14.61-14.86-32.42-26.58-52.3-34.04-.95-.36-1.89-.71-2.85-1.03h-.01c-8.98-3.17-18.35-5.48-28.04-6.81-.07-.01-.13-.03-.19-.04-2.82-.43-12.25-2.2-18.18-3.32-.22-.03-.43-.07-.64-.11-.39-.07-.79-.14-1.18-.22-.38-.07-.72-.14-1.04-.19-.29-.04-.58-.1-.86-.17-.22-.04-.44-.08-.67-.13-.1-.01-.18-.03-.28-.06-.24-.04-.36-.07-.36-.07-3.31-.67-6.58-1.46-9.8-2.36l-9.4-27.61c0,.74,53.6-11.02,99.45,23.58,23.16,17.47,44.34,46.79,55.62,95.54Z"/>
            <path class="cls-3" d="M296.95,225.18c-1.42-6.32-3.25-12.47-5.48-18.45-5.2-14.04-12.52-27.04-21.57-38.64-.01-.01-.03-.04-.06-.06-1.68-2.17-3.45-4.3-5.28-6.37-.01-.01-.03-.03-.03-.04-3.35-4.31-6.48-8.81-9.34-13.48-.25-.4-.49-.81-.74-1.22-6.64-11.08-11.84-23.13-15.33-35.88-.6-2.17-1.14-4.36-1.64-6.58,0,0,10.59-1.47,16.63-11.66,3.38,42.94,28.93,67.96,42.84,132.38Z"/>
            <path class="cls-3" d="M672.36,253.98c-22.71,14.79-49.82,23.38-78.94,23.38-8.66,0-17.15-.76-25.4-2.22-30.23-5.34-57.22-20.05-77.86-41.02h-.01c-.42-2.34-.89-4.63-1.4-6.91-.22-.96-.46-1.92-.7-2.86-.61-2.42-1.28-4.81-2-7.17-.19-.63-.39-1.25-.6-1.86-.15-.5-.32-1-.49-1.5-.29-.89-.6-1.78-.92-2.66-.33-.92-.67-1.83-1.01-2.74-.68-1.82-1.42-3.63-2.18-5.41-.29-.68-.58-1.38-.89-2.04-.31-.71-.63-1.39-.95-2.09,0,0,35.95,36.52,88.59,54.19,30.54,10.26,66.71,14.18,104.76.92Z"/>
          </g>
          <g>
            <path class="cls-4" d="M158.98,347.38c-9.64.31-17.02,3.98-22.14,11.01-5.13,7.04-7.69,19.2-7.69,36.48,0,5.66.53,9.6,1.61,11.82,1.07,2.22,1.61,3.48,1.61,3.79-8.26,0-14.42-1.72-18.47-5.16-4.05-3.44-6.08-9.14-6.08-17.09,0-10.86,2.67-20.76,8.03-29.71,5.35-8.95,13.88-16.17,25.58-21.68s26.57-8.26,44.62-8.26c3.67,0,8.56.38,14.68,1.15,11.01,1.07,18.81,1.61,23.4,1.61,8.11,0,14.99-.92,20.65-2.75-.46,1.38-1.3,4.4-2.52,9.06-1.23,4.67-3.41,8.64-6.54,11.93-3.14,3.29-7.38,5.47-12.73,6.54-9.03,0-19.73-1.45-32.12-4.36l-9.64,45.66h33.5l-3.67,16.98h-33.5l-18.58,86.26h-33.04l33.04-153.25Z"/>
            <path class="cls-4" d="M306.61,502.93c-2.52-2.9-3.79-6.88-3.79-11.93,0-7.19,3.4-15.14,10.21-23.86,6.8-8.72,14.72-16.06,23.75-22.02l-6.42-35.56c-9.33,11.17-19.66,18.51-30.97,22.02-1.23,14.07-4.4,26.38-9.52,36.94-5.13,10.55-11.66,18.7-19.62,24.43-7.95,5.74-16.6,8.6-25.92,8.6-11.32,0-20.27-2.9-26.84-8.72-6.57-5.81-9.87-14.99-9.87-27.53,0-10.4,2.14-21.95,6.42-34.64,4.28-12.69,11.16-23.67,20.65-32.92,9.48-9.25,21.41-13.88,35.79-13.88,19.42,0,29.21,12.01,29.37,36.02,8.41-.92,17.82-8.56,28.22-22.94l-2.07-11.01h32.35l8.26,45.43c7.49-6.57,13.11-12.54,16.86-17.89,3.75-5.35,5.62-10.17,5.62-14.45,0-1.38-.08-2.29-.23-2.75-2.14.31-3.44.46-3.9.46-3.83,0-6.58-1.18-8.26-3.56-1.68-2.37-2.52-5.47-2.52-9.29,0-3.36,1.22-6,3.67-7.92,2.44-1.91,5.51-2.87,9.18-2.87,4.89,0,8.72,1.92,11.47,5.74,2.75,3.82,4.13,8.72,4.13,14.68,0,7.65-2.6,15.37-7.8,23.17-5.2,7.8-13.76,17.06-25.69,27.76l2.75,15.14c.15.77.65,3.18,1.49,7.23.84,4.05,2.25,7.23,4.24,9.52,1.99,2.29,4.59,3.44,7.8,3.44,4.43,0,8.56-1.87,12.39-5.62,3.82-3.75,6.58-8.6,8.26-14.57h9.64c-5.66,16.52-12.81,27.72-21.45,33.61-8.64,5.89-17.25,8.83-25.81,8.83-5.51,0-10.06-1.41-13.65-4.25-3.6-2.83-6.54-7.3-8.83-13.42-2.29-6.12-4.44-14.37-6.42-24.78l-.46-1.61c-13.76,9.64-20.65,18.2-20.65,25.69.46-.15,1.45-.23,2.98-.23,6.27,0,9.41,3.75,9.41,11.24,0,4.28-1.15,7.46-3.44,9.52-2.29,2.07-5.43,3.1-9.41,3.1-5.05,0-8.83-1.46-11.36-4.36ZM264.51,474.59c3.67-4.21,6.88-9.9,9.64-17.09,2.75-7.19,4.74-15.22,5.96-24.09-4.13-1.22-6.19-4.66-6.19-10.32,0-6.42,2.37-10.47,7.11-12.16-.31-4.89-1.11-8.3-2.41-10.21-1.3-1.91-3.41-2.87-6.31-2.87-5.05,0-9.94,3.67-14.68,11.01-4.74,7.34-8.57,16.14-11.47,26.38-2.91,10.25-4.36,19.27-4.36,27.07,0,7.34.84,12.27,2.52,14.8,1.68,2.52,4.74,3.79,9.18,3.79,3.67,0,7.34-2.1,11.01-6.31Z"/>
            <path class="cls-4" d="M411.23,495.13c-4.51-4.59-6.77-11.47-6.77-20.65,0-3.82.61-8.79,1.83-14.91l13.77-64.47h-7.57l1.83-9.18h7.57l6.88-31.66,33.95-4.59-7.8,36.25h13.77l-1.83,9.18h-13.77l-14.68,68.83c-.61,2.29-.92,4.74-.92,7.34,0,3.06.72,5.24,2.18,6.54,1.45,1.3,3.86,1.95,7.23,1.95,4.43,0,8.56-1.87,12.39-5.62,3.82-3.75,6.57-8.6,8.26-14.57h9.64c-5.66,16.52-12.93,27.72-21.79,33.61-8.87,5.89-17.67,8.83-26.38,8.83-7.34,0-13.27-2.29-17.78-6.88Z"/>
            <path class="cls-4" d="M473.28,493.06c-5.81-5.96-8.72-15.29-8.72-27.99,0-11.32,2.26-23.21,6.77-35.67,4.51-12.46,11.24-23.02,20.19-31.66,8.95-8.64,19.62-12.96,32-12.96,6.27,0,10.93,1.07,14,3.21,3.06,2.14,4.59,4.97,4.59,8.49v1.61l2.52-12.16h33.04l-16.52,78c-.61,2.29-.92,4.74-.92,7.34,0,6.58,3.13,9.87,9.41,9.87,4.28,0,7.99-1.99,11.13-5.96,3.13-3.98,5.62-9.18,7.46-15.6h9.63c-5.66,16.52-12.66,27.72-20.99,33.61-8.34,5.89-16.71,8.83-25.12,8.83-6.42,0-11.59-1.8-15.49-5.39-3.9-3.59-6.23-8.83-7-15.72-4.44,6.27-9.37,11.36-14.8,15.26-5.43,3.9-11.89,5.85-19.39,5.85-8.72,0-15.98-2.98-21.79-8.95ZM521.35,474.37c3.75-3.59,6.31-8.52,7.69-14.8l11.01-51.85c0-1.99-.77-3.94-2.29-5.85-1.53-1.91-3.9-2.87-7.11-2.87-6.12,0-11.62,3.56-16.52,10.67-4.9,7.11-8.72,15.68-11.47,25.69-2.75,10.02-4.13,18.85-4.13,26.5s1.11,12.54,3.33,14.68c2.21,2.14,4.93,3.21,8.14,3.21,3.82,0,7.61-1.8,11.36-5.39Z"/>
            <path class="cls-4" d="M593.15,495.13c-4.51-4.59-6.77-11.47-6.77-20.65,0-3.82.61-8.79,1.83-14.91l15.6-73.64h33.04l-16.52,78c-.61,2.29-.92,4.74-.92,7.34,0,3.06.72,5.24,2.18,6.54,1.45,1.3,3.86,1.95,7.23,1.95,4.43,0,8.56-1.87,12.39-5.62,3.82-3.75,6.57-8.6,8.26-14.57h9.64c-5.66,16.52-12.93,27.72-21.79,33.61-8.87,5.89-17.67,8.83-26.38,8.83-7.34,0-13.27-2.29-17.78-6.88ZM613.69,368.26c-3.52-3.52-5.28-7.8-5.28-12.85s1.76-9.37,5.28-12.96c3.52-3.59,7.8-5.39,12.85-5.39s9.37,1.8,12.96,5.39c3.59,3.59,5.39,7.92,5.39,12.96s-1.8,9.33-5.39,12.85c-3.6,3.52-7.92,5.28-12.96,5.28s-9.33-1.76-12.85-5.28Z"/>
            <path class="cls-4" d="M653.95,495.01c-4.51-4.66-6.77-11.66-6.77-20.99,0-3.82.61-8.79,1.83-14.91l24.55-114.94,33.95-4.59-26.38,123.89c-.61,2.29-.92,4.51-.92,6.65,0,6.12,3.13,9.18,9.41,9.18,2.75,0,5.2-.46,7.34-1.38-.61,7.65-3.33,13.58-8.14,17.78-4.82,4.21-10.52,6.31-17.09,6.31-7.34,0-13.27-2.33-17.78-7Z"/>
          </g>
          <g>
            <path class="cls-4" d="M226.59,579.65h-2.43l6.68-33.41h22.34l-.48,2.2h-19.85l-6.25,31.21ZM229.64,562.7h18.09l-.43,2.2h-18.09l.43-2.2Z"/>
            <path class="cls-4" d="M287.15,579.65l22.05-33.41h2.43l8.69,33.41h-2.48l-8.11-31.93h1l-20.86,31.93h-2.72ZM294.65,570.24l1.24-2.05h19.95l.43,2.05h-21.62Z"/>
            <path class="cls-4" d="M366.47,579.65l6.68-33.41h11.69c3.69,0,6.55.8,8.57,2.41s3.03,3.87,3.03,6.8-.62,5.27-1.86,7.23c-1.24,1.96-3.01,3.44-5.3,4.46s-5.01,1.53-8.16,1.53h-11.07l1.29-1.1-2.43,12.08h-2.43ZM371.29,567.71l-.81-1.19h10.64c4.07,0,7.24-.91,9.5-2.74,2.26-1.83,3.39-4.54,3.39-8.14,0-2.32-.8-4.1-2.41-5.35-1.61-1.24-3.91-1.86-6.9-1.86h-10.59l1.29-1.19-4.1,20.47ZM389.72,579.65l-6.83-12.12h2.67l6.82,12.12h-2.67Z"/>
            <path class="cls-4" d="M440.93,579.65l6.68-33.41h2l10.36,26.82-1.05-.14,20.47-26.68h2.15l-6.68,33.41h-2.39l5.97-29.78.72.1-19.47,25.25h-1.19l-9.88-25.39.62.1-5.92,29.73h-2.39Z"/>
            <path class="cls-4" d="M535.95,579.88c-1.62,0-3.21-.2-4.75-.6s-2.93-.93-4.15-1.6-2.19-1.42-2.89-2.24l1.29-1.86c.7.8,1.61,1.51,2.74,2.15,1.13.64,2.39,1.13,3.77,1.48,1.38.35,2.78.52,4.18.52,2.07,0,3.91-.29,5.51-.86,1.61-.57,2.86-1.41,3.75-2.5.89-1.1,1.34-2.44,1.34-4.03,0-1.18-.33-2.13-.98-2.86-.65-.73-1.5-1.34-2.53-1.81-1.03-.48-2.18-.88-3.44-1.22s-2.51-.71-3.77-1.12c-1.26-.41-2.4-.91-3.44-1.5-1.04-.59-1.88-1.36-2.53-2.31-.65-.95-.98-2.16-.98-3.63,0-2.1.57-3.88,1.69-5.35,1.13-1.46,2.67-2.58,4.61-3.36,1.94-.78,4.15-1.17,6.63-1.17,1.91,0,3.75.25,5.54.74,1.78.49,3.29,1.22,4.53,2.17l-1.15,2c-1.18-.89-2.55-1.58-4.1-2.05-1.56-.48-3.2-.72-4.92-.72-2.04,0-3.84.29-5.42.88s-2.8,1.44-3.67,2.55c-.88,1.11-1.31,2.47-1.31,4.06,0,1.18.32,2.14.95,2.89.64.75,1.47,1.37,2.51,1.86,1.03.49,2.19.92,3.46,1.26,1.27.35,2.53.72,3.77,1.12,1.24.4,2.39.89,3.44,1.48s1.9,1.34,2.55,2.27c.65.92.98,2.1.98,3.53,0,2.13-.58,3.93-1.74,5.39-1.16,1.46-2.74,2.57-4.73,3.32-1.99.75-4.24,1.12-6.75,1.12Z"/>
          </g>
        </g>
      </g>
    </g>
  </g>
</svg>